<svg width="146" height="24" viewBox="0 0 146 24" fill="none" xmlns="http://www.w3.org/2000/svg">
<path d="M0.0227273 23.5V0.227272H15.4318V4.28409H4.94318V9.82955H14.4091V13.8864H4.94318V23.5H0.0227273ZM63.0511 23.7841C61.7254 23.7841 60.5246 23.4432 59.4489 22.7614C58.3807 22.072 57.5322 21.0606 56.9034 19.7273C56.2822 18.3864 55.9716 16.7424 55.9716 14.7955C55.9716 12.7955 56.2936 11.1326 56.9375 9.80682C57.5814 8.47348 58.4375 7.47727 59.5057 6.81818C60.5814 6.15152 61.7595 5.81818 63.0398 5.81818C64.017 5.81818 64.8314 5.98485 65.483 6.31818C66.142 6.64394 66.6723 7.05303 67.0739 7.54545C67.483 8.0303 67.7936 8.50758 68.0057 8.97727H68.1534V0.227272H72.983V23.5H68.2102V20.7045H68.0057C67.7784 21.1894 67.4564 21.6705 67.0398 22.1477C66.6307 22.6174 66.0966 23.0076 65.4375 23.3182C64.786 23.6288 63.9905 23.7841 63.0511 23.7841ZM64.5852 19.9318C65.3655 19.9318 66.0246 19.7197 66.5625 19.2955C67.108 18.8636 67.5246 18.2614 67.8125 17.4886C68.108 16.7159 68.2557 15.8106 68.2557 14.7727C68.2557 13.7348 68.1117 12.8333 67.8239 12.0682C67.536 11.303 67.1193 10.7121 66.5739 10.2955C66.0284 9.87879 65.3655 9.67045 64.5852 9.67045C63.7898 9.67045 63.1193 9.88636 62.5739 10.3182C62.0284 10.75 61.6155 11.3485 61.3352 12.1136C61.0549 12.8788 60.9148 13.7652 60.9148 14.7727C60.9148 15.7879 61.0549 16.6856 61.3352 17.4659C61.6231 18.2386 62.036 18.8447 62.5739 19.2841C63.1193 19.7159 63.7898 19.9318 64.5852 19.9318ZM84.4602 23.5V0.227272H89.3807V9.82955H99.3693V0.227272H104.278V23.5H99.3693V13.8864H89.3807V23.5H84.4602ZM128.241 23.5V0.227272H133.082V8.97727H133.23C133.442 8.50758 133.749 8.0303 134.151 7.54545C134.56 7.05303 135.09 6.64394 135.741 6.31818C136.401 5.98485 137.219 5.81818 138.196 5.81818C139.469 5.81818 140.643 6.15152 141.719 6.81818C142.795 7.47727 143.654 8.47348 144.298 9.80682C144.942 11.1326 145.264 12.7955 145.264 14.7955C145.264 16.7424 144.95 18.3864 144.321 19.7273C143.7 21.0606 142.851 22.072 141.776 22.7614C140.707 23.4432 139.51 23.7841 138.185 23.7841C137.245 23.7841 136.446 23.6288 135.787 23.3182C135.135 23.0076 134.601 22.6174 134.185 22.1477C133.768 21.6705 133.45 21.1894 133.23 20.7045H133.014V23.5H128.241ZM132.98 14.7727C132.98 15.8106 133.124 16.7159 133.412 17.4886C133.7 18.2614 134.116 18.8636 134.662 19.2955C135.207 19.7197 135.87 19.9318 136.651 19.9318C137.438 19.9318 138.105 19.7159 138.651 19.2841C139.196 18.8447 139.609 18.2386 139.889 17.4659C140.177 16.6856 140.321 15.7879 140.321 14.7727C140.321 13.7652 140.181 12.8788 139.901 12.1136C139.62 11.3485 139.207 10.75 138.662 10.3182C138.116 9.88636 137.446 9.67045 136.651 9.67045C135.863 9.67045 135.196 9.87879 134.651 10.2955C134.113 10.7121 133.7 11.303 133.412 12.0682C133.124 12.8333 132.98 13.7348 132.98 14.7727Z" fill="white"/>
<path d="M25.2557 23.8409C23.4905 23.8409 21.964 23.4659 20.6761 22.7159C19.3958 21.9583 18.4072 20.9053 17.7102 19.5568C17.0133 18.2008 16.6648 16.6288 16.6648 14.8409C16.6648 13.0379 17.0133 11.4621 17.7102 10.1136C18.4072 8.75758 19.3958 7.70454 20.6761 6.95454C21.964 6.19697 23.4905 5.81818 25.2557 5.81818C27.0208 5.81818 28.5436 6.19697 29.8239 6.95454C31.1117 7.70454 32.1042 8.75758 32.8011 10.1136C33.4981 11.4621 33.8466 13.0379 33.8466 14.8409C33.8466 16.6288 33.4981 18.2008 32.8011 19.5568C32.1042 20.9053 31.1117 21.9583 29.8239 22.7159C28.5436 23.4659 27.0208 23.8409 25.2557 23.8409ZM25.2784 20.0909C26.0814 20.0909 26.7519 19.8636 27.2898 19.4091C27.8277 18.947 28.233 18.3182 28.5057 17.5227C28.786 16.7273 28.9261 15.822 28.9261 14.8068C28.9261 13.7917 28.786 12.8864 28.5057 12.0909C28.233 11.2955 27.8277 10.6667 27.2898 10.2045C26.7519 9.74242 26.0814 9.51136 25.2784 9.51136C24.4678 9.51136 23.786 9.74242 23.233 10.2045C22.6875 10.6667 22.2746 11.2955 21.9943 12.0909C21.7216 12.8864 21.5852 13.7917 21.5852 14.8068C21.5852 15.822 21.7216 16.7273 21.9943 17.5227C22.2746 18.3182 22.6875 18.947 23.233 19.4091C23.786 19.8636 24.4678 20.0909 25.2784 20.0909ZM44.8807 23.8409C43.1155 23.8409 41.589 23.4659 40.3011 22.7159C39.0208 21.9583 38.0322 20.9053 37.3352 19.5568C36.6383 18.2008 36.2898 16.6288 36.2898 14.8409C36.2898 13.0379 36.6383 11.4621 37.3352 10.1136C38.0322 8.75758 39.0208 7.70454 40.3011 6.95454C41.589 6.19697 43.1155 5.81818 44.8807 5.81818C46.6458 5.81818 48.1686 6.19697 49.4489 6.95454C50.7367 7.70454 51.7292 8.75758 52.4261 10.1136C53.1231 11.4621 53.4716 13.0379 53.4716 14.8409C53.4716 16.6288 53.1231 18.2008 52.4261 19.5568C51.7292 20.9053 50.7367 21.9583 49.4489 22.7159C48.1686 23.4659 46.6458 23.8409 44.8807 23.8409ZM44.9034 20.0909C45.7064 20.0909 46.3769 19.8636 46.9148 19.4091C47.4527 18.947 47.858 18.3182 48.1307 17.5227C48.411 16.7273 48.5511 15.822 48.5511 14.8068C48.5511 13.7917 48.411 12.8864 48.1307 12.0909C47.858 11.2955 47.4527 10.6667 46.9148 10.2045C46.3769 9.74242 45.7064 9.51136 44.9034 9.51136C44.0928 9.51136 43.411 9.74242 42.858 10.2045C42.3125 10.6667 41.8996 11.2955 41.6193 12.0909C41.3466 12.8864 41.2102 13.7917 41.2102 14.8068C41.2102 15.822 41.3466 16.7273 41.6193 17.5227C41.8996 18.3182 42.3125 18.947 42.858 19.4091C43.411 19.8636 44.0928 20.0909 44.9034 20.0909ZM119.438 16.0682V6.04545H124.278V23.5H119.631V20.3295H119.449C119.055 21.3523 118.4 22.1742 117.483 22.7955C116.574 23.4167 115.464 23.7273 114.153 23.7273C112.987 23.7273 111.96 23.4621 111.074 22.9318C110.188 22.4015 109.494 21.6477 108.994 20.6705C108.502 19.6932 108.252 18.5227 108.244 17.1591V6.04545H113.085V16.2955C113.093 17.3258 113.369 18.1402 113.915 18.7386C114.46 19.3371 115.191 19.6364 116.108 19.6364C116.691 19.6364 117.237 19.5038 117.744 19.2386C118.252 18.9659 118.661 18.5644 118.972 18.0341C119.29 17.5038 119.445 16.8485 119.438 16.0682Z" fill="#FF0A0A"/>
</svg>
